# ProBuilder 6.0.7
# https://unity3d.com/unity/features/worldbuilding/probuilder
# 9/12/2025 2:13:43 PM

mtllib ./Waterfall.mtl
o Waterfall

g Waterfall
v -446.1052 92.72439 468.7964
v -448.434 92.25992 471.0139
v -450.0585 89.05689 468.3565
v -447.6189 89.38493 465.674
v -450.7628 91.79544 473.2313
v -452.4981 88.72886 471.039
v -454.2334 85.66228 468.8468
v -451.683 85.85387 465.6992
v -449.1326 86.04546 462.5516
v -454.8266 83.00388 461.5636
v -451.8517 83.65028 458.6845
v -457.8015 82.35749 464.4427
v -461.3695 79.0527 460.0387
v -457.9702 80.1539 457.428
v -454.5709 81.2551 454.8173
v -458.2308 77.73869 453.1631
v -454.8134 78.82049 450.5681
v -461.6482 76.6569 455.758
v -461.9269 74.26109 451.4773
v -458.4914 75.32348 448.8981
v -455.0558 76.38586 446.319
v -458.9297 71.43217 445.6322
v -455.5152 72.51706 443.0348
v -462.3442 70.34728 448.2296
v -462.7615 66.43347 444.9819
v -459.368 67.54086 442.3663
v -455.9745 68.64825 439.7506
v -460.2142 63.04688 439.1607
v -456.5154 64.22297 435.6747
v -463.9131 61.8708 442.6467
v -465.0646 57.30811 440.3115
v -461.0604 58.5529 435.955
v -457.0562 59.79768 431.5987
v -461.8443 55.06947 434.3597
v -457.84 56.31426 430.0032
v -465.8485 53.82467 438.7161
v -466.6324 50.34124 437.1208
v -462.6282 51.58604 432.7643
v -458.6239 52.83084 428.4078
v -461.9169 50.41148 430.458
v -458.8907 51.39494 427.1854
v -464.9431 49.42802 433.7306
v -463.2538 48.51482 430.3404
v -461.2057 49.23692 428.1517
v -459.1576 49.95903 425.963
v -461.0893 47.80341 425.9441
v -459.2373 48.32384 424.1905
v -462.9412 47.28297 427.6976
v -462.6287 46.05112 425.0548
v -460.9728 46.36989 423.7365
v -459.317 46.68866 422.4181
v -462.9597 40.90355 420.1389
v -460.8578 41.09742 418.7027
v -465.0616 40.70967 421.575
v -467.4945 35.36822 418.0953
v -464.9466 35.43721 416.5413
v -462.3987 35.50619 414.9873
v -465.559 32.80365 415.7102
v -463.1016 32.8999 413.9997
v -468.0164 32.7074 417.4207
v -468.5383 30.04658 416.7462
v -466.1714 30.17009 414.8792
v -463.8045 30.29361 413.0122
v -467.3718 30.20495 413.5067
v -465.085 30.40828 411.5023
v -469.6586 30.00163 415.5112
v -470.7789 29.95668 414.2762
v -468.5722 30.23981 412.1343
v -466.3655 30.52295 409.9924
v -469.5775 29.88921 411.2427
v -467.0709 30.13875 408.7892
v -472.0842 29.63967 413.6963
v -473.3894 29.32265 413.1163
v -470.5829 29.5386 410.3512
v -467.7763 29.75455 407.5861
v -471.4063 29.91302 409.5716
v -468.6174 30.119 406.7903
v -474.1953 29.70706 412.3529
v -475.0011 30.09146 411.5895
v -472.2298 30.28745 408.792
v -469.4585 30.48344 405.9945
v -472.9785 30.10926 408.3158
v -470.1807 30.27555 405.5432
v -475.7762 29.94297 411.0884
v -476.5513 29.79449 410.5873
v -473.7271 29.93107 407.8396
v -470.903 30.06765 405.0919
v -474.4157 27.35021 406.5348
v -471.6302 27.52994 403.7509
v -477.2011 27.17047 409.3185
v -477.8509 24.54645 408.0498
v -475.1042 24.76935 405.2299
v -472.3575 24.99224 402.41
v -477.0261 21.61625 404.4344
v -474.7243 21.79235 401.2865
v -479.3279 21.44013 407.5822
v -480.8048 18.33381 407.1146
v -478.9479 18.46313 403.6388
v -477.091 18.59246 400.163
v -479.5291 17.34704 403.6252
v -477.8043 17.41301 399.7944
v -481.254 17.28107 407.456
v -481.7032 16.22832 407.7974
v -480.1104 16.23094 403.6116
v -478.5175 16.23356 399.4258
v -480.909 14.64459 404.0074
v -479.3159 14.64723 400.0554
v -482.502 14.64194 407.9594
v -483.3008 13.05557 408.1215
v -481.7076 13.05823 404.4032
v -480.1143 13.0609 400.685
v -482.752 11.68343 404.2456
v -481.1644 11.67593 400.5251
v -484.3397 11.69092 407.9662
v -485.3785 10.32627 407.811
v -483.7965 10.30862 404.088
v -482.2144 10.29097 400.3651
v -484.1086 9.375607 403.4565
v -482.521 9.368112 399.4208
v -485.6963 9.383099 407.4922
v -486.014 8.439931 407.1735
v -484.4208 8.442595 402.825
v -482.8275 8.445253 398.4765
v -486.709 7.674778 401.8391
v -485.1157 7.677412 397.3118
v -488.3023 7.672134 406.3663
v -492.6828 6.904365 405.5592
v -491.0894 6.906982 400.8532
v -489.496 6.909597 396.1472
v -454.4893 87.39871 474.1271
v -456.584 83.59183 471.4375
v -452.3946 91.2056 476.8166
v -454.0263 87.78627 477.8964
v -456.4804 83.52591 474.7095
v -458.9345 80.16919 471.5226
v -459.8039 81.04136 467.5618
v -463.0237 78.4909 463.6861
v -461.8062 77.98746 468.1752
v -464.6778 75.00086 464.8279
v -450.7436 83.7543 459.8161
v -448.0148 86.23309 463.7767
v -453.4724 81.2755 455.8555
v -448.4771 78.18586 456.8936
v -445.7388 80.74828 460.9477
v -443.0004 83.31071 465.0018
v -446.2062 90.31051 467.4711
v -444.3976 94.38792 471.1654
v -440.8969 88.12607 469.2681
v -438.7934 92.94143 473.5344
v -453.5307 78.80673 451.3421
v -453.5891 76.33797 446.8287
v -452.1223 76.29007 447.3384
v -448.3514 75.68295 452.116
v -462.3988 76.02682 459.3041
v -461.7738 73.56275 454.9221
v -463.1493 75.39677 460.3446
v -461.6207 72.86441 458.3669
v -453.9644 72.40397 443.3616
v -454.3398 68.46997 439.8946
v -452.7051 68.29169 440.0386
v -452.4137 72.29088 443.6885
v -462.1072 69.58372 451.4916
v -462.4406 65.6047 448.0612
v -461.8702 68.82017 454.7537
v -462.1197 64.77592 451.1405
v -454.7669 63.97068 435.5889
v -455.1941 59.4714 431.2833
v -453.3319 59.14511 430.9679
v -453.0185 63.7184 435.5032
v -463.6257 60.94885 445.6493
v -464.8108 56.29299 443.2374
v -463.3383 60.0269 448.6519
v -464.5569 55.27787 446.1633
v -456.0078 55.91822 429.6363
v -456.8216 52.36504 427.9893
v -455.0193 51.89924 427.5708
v -454.1756 55.52218 429.2693
v -465.6246 52.7398 441.5905
v -466.4385 49.1866 439.9435
v -465.4008 51.65492 444.4648
v -466.2446 48.03197 442.7663
v -484.2252 4.652754 397.2637
v -481.8312 5.475692 398.3582
v -488.7115 3.82984 396.1692
v -485.8346 0.7500696 396.1913
v -483.3348 1.628105 397.2156
v -480.8349 2.50614 398.24
v -481.5404 6.417575 399.3336
v -481.2497 7.359443 400.309
v -480.5599 3.467033 399.2464
v -480.2849 4.427916 400.2529
v -480.1086 8.788076 400.4137
v -478.9675 10.21671 400.5184
v -479.0529 5.90022 400.3024
v -477.8208 7.372519 400.3519
v -490.4374 4.095082 409.121
v -494.9447 3.271233 408.4033
v -488.0223 4.918951 409.8386
v -490.0305 1.397966 412.5038
v -492.5724 0.5180299 411.8756
v -497.2066 -0.3618979 411.2474
v -487.6824 5.883409 410.1539
v -487.3426 6.847861 410.4691
v -489.3066 3.369452 413.1273
v -489.6686 2.383709 412.8155
v -486.2136 8.255623 410.5696
v -485.0847 9.663393 410.6701
v -486.8685 6.271215 413.2187
v -488.0876 4.820333 413.173
v -484.1894 11.29272 410.4493
v -483.2942 12.92205 410.2285
v -484.8851 9.615778 412.6596
v -485.8768 7.943499 412.9391
v -478.0453 11.84726 399.8048
v -477.123 13.47781 399.0912
v -476.7747 9.047288 399.5542
v -475.7286 10.72206 398.7566
v -476.3585 14.69022 399.4357
v -475.594 15.90265 399.7802
v -474.9128 11.96745 399.077
v -474.0969 13.21283 399.3975
v -482.7729 14.00233 409.8401
v -482.2516 15.08262 409.4516
v -483.6984 11.83142 411.7887
v -484.2917 10.7236 412.2241
v -473.0653 19.20019 400.8203
v -470.5366 22.49775 401.8605
v -471.4063 16.60804 400.3542
v -468.7156 20.00325 401.3109
v -480.6379 18.26917 409.8516
v -479.0242 21.45573 410.2516
v -480.1974 18.36502 412.4534
v -481.9479 15.09822 412.121
v -469.579 25.25717 402.9519
v -468.6216 28.0166 404.0433
v -467.5279 22.9844 402.1528
v -466.3401 25.96554 402.9947
v -478.1436 24.30158 411.3356
v -477.263 27.14744 412.4196
v -477.9746 24.50039 414.252
v -479.086 21.4327 413.3527
v -467.8715 28.24108 404.4819
v -467.1214 28.46556 404.9206
v -465.5622 26.2066 403.4207
v -464.7843 26.44767 403.8467
v -466.2758 28.10948 405.7214
v -465.4302 27.75341 406.5223
v -463.9342 26.09997 404.6526
v -463.084 25.75227 405.4586
v -464.7779 28.0146 407.8543
v -464.1255 28.27579 409.1864
v -462.4848 25.89045 406.9195
v -461.8855 26.02863 408.3804
v -476.4604 27.31242 412.9085
v -475.658 27.47741 413.3974
v -476.3148 24.86335 415.2053
v -477.1447 24.68188 414.7287
v -474.8485 27.10043 414.1658
v -474.0391 26.72345 414.9342
v -474.6888 24.12426 416.7521
v -475.5018 24.4938 415.9787
v -472.6146 26.9335 415.3533
v -471.19 27.14354 415.7724
v -471.6011 24.3304 417.2686
v -473.145 24.22733 417.0104
v -462.9774 28.83347 410.4217
v -461.8293 29.39116 411.657
v -460.8698 27.25866 409.3411
v -459.8542 28.4887 410.3018
v -470.207 27.8606 416.7623
v -469.224 28.57766 417.7521
v -469.9096 27.10874 418.7581
v -470.7554 25.71957 418.0134
v -461.1222 32.05103 412.797
v -460.4151 34.7109 413.937
v -459.1429 31.20215 411.5942
v -458.4315 33.9156 412.8867
v -468.7735 31.28717 418.7426
v -468.3229 33.99668 419.733
v -469.1514 32.62513 421.3707
v -469.5305 29.86693 420.0644
v -458.8743 40.41655 417.7961
v -457.3334 46.1222 421.6551
v -456.8907 39.73567 416.8894
v -455.3499 45.55574 420.8922
v -465.8192 39.46668 423.2889
v -463.3155 44.93668 426.8449
v -464.0022 43.82223 428.6351
v -466.5768 38.22368 425.0029
v -457.0638 50.90304 426.7044
v -457.306 49.44104 425.4195
v -455.4544 48.92305 424.8761
v -455.2369 50.41114 426.2234
v -457.3197 47.78162 423.5373
v -455.4021 47.23939 422.8841
v -462.8896 46.17583 429.68
v -462.4637 47.41498 432.5151
v -461.6736 46.31514 434.6898
v -462.838 45.06868 431.6624
v -464.4511 48.30079 436.2293
v -463.9591 47.17355 438.7281
v -448.3961 92.79676 473.991
v -448.3582 90.5041 476.9682

vt 0.6095374 1.234609
vt 0.6769189 1.24148
vt 0.678622 1.184798
vt 0.603866 1.17297
vt 0.7443004 1.248352
vt 0.7533782 1.196626
vt 0.7624558 1.144901
vt 0.6803253 1.128116
vt 0.5981946 1.111331
vt 0.6855479 1.052185
vt 0.5986873 1.043335
vt 0.7724087 1.061035
vt 0.7823615 0.9771686
vt 0.6907709 0.9762536
vt 0.5991801 0.9753386
vt 0.6472417 0.9162372
vt 0.5556351 0.9154251
vt 0.7388482 0.9170495
vt 0.6953349 0.8569304
vt 0.6037126 0.856221
vt 0.5120902 0.8555114
vt 0.5810059 0.7944801
vt 0.4894024 0.7936517
vt 0.6726093 0.7953086
vt 0.6498839 0.7336868
vt 0.5582993 0.7327394
vt 0.4667147 0.731792
vt 0.5448546 0.6652812
vt 0.4368314 0.6578548
vt 0.6528777 0.6727076
vt 0.6558716 0.6117283
vt 0.53141 0.5978229
vt 0.4069482 0.5839175
vt 0.5346391 0.5535547
vt 0.4101762 0.5396492
vt 0.659102 0.5674601
vt 0.6623322 0.5231918
vt 0.5378681 0.5092864
vt 0.4134042 0.495381
vt 0.5004091 0.4819287
vt 0.4064621 0.4719175
vt 0.5943561 0.4919399
vt 0.5263798 0.460688
vt 0.46295 0.454571
vt 0.3995201 0.4484541
vt 0.4370587 0.4234182
vt 0.3830964 0.419131
vt 0.491021 0.4277053
vt 0.4556622 0.3947226
vt 0.4111674 0.3922653
vt 0.3666726 0.3898081
vt 0.4139033 0.3084732
vt 0.3612321 0.3061515
vt 0.4665746 0.3107949
vt 0.477487 0.226867
vt 0.4166392 0.224681
vt 0.3557915 0.222495
vt 0.4242969 0.1947629
vt 0.3627433 0.1908095
vt 0.4858506 0.1987161
vt 0.4942143 0.1705652
vt 0.4319547 0.1648446
vt 0.3696951 0.1591242
vt 0.4328841 0.1459003
vt 0.3698269 0.1390243
vt 0.4959413 0.1527763
vt 0.4976684 0.1349874
vt 0.4338135 0.1269561
vt 0.3699587 0.1189246
vt 0.4392365 0.1108777
vt 0.3666771 0.1010396
vt 0.511796 0.1207155
vt 0.5259236 0.1064434
vt 0.4446596 0.09479907
vt 0.3633955 0.08315465
vt 0.4462378 0.08588657
vt 0.3650739 0.07392737
vt 0.5274016 0.097846
vt 0.5288796 0.08924833
vt 0.447816 0.07697418
vt 0.3667522 0.06469998
vt 0.4540308 0.0674189
vt 0.3729746 0.05530331
vt 0.535087 0.07953474
vt 0.5412945 0.06982091
vt 0.4602457 0.05786374
vt 0.3791969 0.04590645
vt 0.4627372 0.02334604
vt 0.3816843 0.01115778
vt 0.5437903 0.03553417
vt 0.5462861 0.001247555
vt 0.4652289 -0.01117167
vt 0.3841716 -0.02359083
vt 0.4958057 -0.05085018
vt 0.4176556 -0.06896153
vt 0.5739558 -0.03273901
vt 0.6016253 -0.0667257
vt 0.5263824 -0.09052888
vt 0.4511397 -0.1143322
vt 0.5391423 -0.1014855
vt 0.4615594 -0.1298368
vt 0.6167251 -0.07313433
vt 0.6318249 -0.07954326
vt 0.5519021 -0.1124422
vt 0.4719792 -0.1453411
vt 0.5750297 -0.1238468
vt 0.4981597 -0.1544723
vt 0.6518999 -0.09322122
vt 0.6719749 -0.106899
vt 0.5981575 -0.1352511
vt 0.5243402 -0.1636033
vt 0.6172303 -0.1517187
vt 0.5435053 -0.1801939
vt 0.6909553 -0.1232438
vt 0.7099357 -0.1395884
vt 0.6363031 -0.1681863
vt 0.5626705 -0.1967839
vt 0.6361148 -0.1825266
vt 0.5582705 -0.2140646
vt 0.7139592 -0.1509885
vt 0.7179828 -0.1623887
vt 0.6359266 -0.1968671
vt 0.5538704 -0.2313454
vt 0.6618083 -0.2231049
vt 0.5774144 -0.2593208
vt 0.7462023 -0.1868895
vt 0.7744218 -0.2113902
vt 0.68769 -0.2493432
vt 0.6009583 -0.2872962
vt 0.829705 1.207409
vt 0.8404508 1.143797
vt 0.8189592 1.271021
vt 0.8703545 1.249078
vt 0.8818054 1.175634
vt 0.8902237 1.108659
vt 0.8492718 1.072165
vt 0.8580927 1.000533
vt 0.8992063 1.046499
vt 0.9108906 0.9785788
vt 0.595603 1.060483
vt 0.5958998 1.130033
vt 0.595306 0.9909328
vt 0.5402291 1.003263
vt 0.5413157 1.074367
vt 0.5424021 1.145471
vt 0.6019078 1.203952
vt 0.6079158 1.277872
vt 0.5487467 1.23167
vt 0.5550913 1.31787
vt 0.5455097 0.929104
vt 0.4957134 0.8672751
vt 0.4793366 0.8790389
vt 0.4841816 0.9395187
vt 0.7991899 0.9433466
vt 0.7402873 0.8861605
vt 0.826777 0.9452899
vt 0.7852397 0.9153906
vt 0.4695257 0.8035809
vt 0.4433379 0.7398866
vt 0.4199612 0.7479814
vt 0.4496489 0.8135102
vt 0.7140648 0.8227046
vt 0.6878424 0.7592485
vt 0.7555203 0.8501004
vt 0.725801 0.7848103
vt 0.4089017 0.6637417
vt 0.3744653 0.5875968
vt 0.3419823 0.591276
vt 0.3809718 0.6696287
vt 0.6906765 0.6966934
vt 0.6935104 0.6341381
vt 0.7284751 0.7206792
vt 0.7311491 0.656548
vt 0.3777268 0.5421817
vt 0.3809884 0.4967669
vt 0.3485726 0.4981528
vt 0.3452775 0.5447145
vt 0.6967745 0.5887233
vt 0.7000384 0.5433084
vt 0.7344469 0.6099864
vt 0.7377448 0.5634249
vt 0.5728475 -0.2771004
vt 0.5465271 -0.2488961
vt 0.5991679 -0.3053044
vt 0.5973775 -0.3233128
vt 0.5682807 -0.2948795
vt 0.5391839 -0.2664464
vt 0.551519 -0.2312542
vt 0.5565108 -0.2136125
vt 0.5447676 -0.2484439
vt 0.5503513 -0.2304414
vt 0.535038 -0.1968025
vt 0.5135651 -0.1799924
vt 0.5265707 -0.2134113
vt 0.50279 -0.1963812
vt 0.827983 -0.1961354
vt 0.8595668 -0.2207863
vt 0.7963994 -0.1714845
vt 0.8748159 -0.1805806
vt 0.9097638 -0.2053814
vt 0.9447117 -0.2301824
vt 0.7919095 -0.1598582
vt 0.7874196 -0.1482322
vt 0.8649036 -0.1568759
vt 0.8698598 -0.1687282
vt 0.7661532 -0.1316716
vt 0.7448869 -0.1151111
vt 0.8177989 -0.1233232
vt 0.8413512 -0.1400995
vt 0.7223742 -0.1012268
vt 0.6998614 -0.08734223
vt 0.767898 -0.09514114
vt 0.7928483 -0.1092322
vt 0.4841788 -0.1707576
vt 0.4547925 -0.1615227
vt 0.4701979 -0.187043
vt 0.4376058 -0.1777045
vt 0.4431359 -0.1457661
vt 0.4314794 -0.1300093
vt 0.4247124 -0.1616954
vt 0.4118191 -0.1456863
vt 0.6829141 -0.08084169
vt 0.6659669 -0.07434115
vt 0.7303085 -0.08195671
vt 0.7491032 -0.08854887
vt 0.394016 -0.08396015
vt 0.3565525 -0.03791091
vt 0.3703763 -0.0989587
vt 0.3289334 -0.05223104
vt 0.634981 -0.03977045
vt 0.6039951 -0.005199879
vt 0.6617042 -0.01164719
vt 0.6960063 -0.04680189
vt 0.3464178 -0.002877802
vt 0.336283 0.03215542
vt 0.3111512 -0.01691326
vt 0.2933691 0.01840457
vt 0.59469 0.03000507
vt 0.5853847 0.06521001
vt 0.6294749 0.06059942
vt 0.6455896 0.02447608
vt 0.3293994 0.04168388
vt 0.3225159 0.05121228
vt 0.2858243 0.02806446
vt 0.2782795 0.03772458
vt 0.3208042 0.06057087
vt 0.3190925 0.06992939
vt 0.2765346 0.04721436
vt 0.2747895 0.05670407
vt 0.3253109 0.08792755
vt 0.3315293 0.1059256
vt 0.2839448 0.07481548
vt 0.2930999 0.09292683
vt 0.5785285 0.07505664
vt 0.5716723 0.08490297
vt 0.614465 0.08055761
vt 0.6219699 0.07057849
vt 0.5701783 0.09361991
vt 0.5686841 0.1023368
vt 0.6114446 0.09823021
vt 0.6129547 0.08939394
vt 0.5509256 0.1148612
vt 0.5331672 0.1273856
vt 0.5686662 0.1197837
vt 0.5900553 0.1090069
vt 0.3276471 0.1275243
vt 0.3237646 0.1491229
vt 0.2854671 0.1160242
vt 0.2778342 0.1391217
vt 0.5281525 0.1469342
vt 0.5231377 0.1664828
vt 0.5520611 0.1624002
vt 0.5603637 0.1410919
vt 0.3185593 0.182694
vt 0.313354 0.2162654
vt 0.2743753 0.1745786
vt 0.2709164 0.2100357
vt 0.5198692 0.1977045
vt 0.5166008 0.2289261
vt 0.5557148 0.2309851
vt 0.5538878 0.1966927
vt 0.3202887 0.3021374
vt 0.3272234 0.3880094
vt 0.2793454 0.2981232
vt 0.2795385 0.2964399
vt 0.2869681 0.3821326
vt 0.3270303 0.3896926
vt 0.3206075 0.3060476
vt 0.5051332 0.3148605
vt 0.4936655 0.4007949
vt 0.5316689 0.4068672
vt 0.5436919 0.3189261
vt 0.3729272 0.47263
vt 0.3648659 0.4484932
vt 0.3302118 0.4485323
vt 0.3393922 0.4733425
vt 0.3460447 0.4182513
vt 0.2877743 0.3862106
vt 0.308993 0.4173714
vt 0.5198336 0.4392999
vt 0.5460016 0.4778046
vt 0.5656233 0.4949211
vt 0.5486461 0.4508941
vt 0.6230201 0.5105565
vt 0.651684 0.529173
vt 0.7134376 1.274446
vt 0.7594471 1.287155

vn -0.001587584 1.04717 -0.3783425
vn -0.3292361 1.076605 -0.1000653
vn -0.5425537 0.7604858 -0.3861403
vn 0.1343386 0.8408465 -0.6140119
vn -0.4603211 0.9866983 -0.0882208
vn -0.6469585 0.7202287 -0.2867188
vn -0.4807246 0.9814344 -0.05689779
vn -0.367754 1.024467 -0.1588828
vn 0.2716336 0.9943672 -0.4493975
vn -0.1729899 1.235548 0.09031397
vn 0.366676 1.132782 -0.267451
vn -0.2719631 1.196764 0.1583188
vn -0.5248079 0.9322929 -0.0854882
vn -0.3049558 1.109855 -0.05705663
vn 0.2140485 1.207399 -0.1831398
vn -0.4091218 0.9682534 -0.2138591
vn 0.05028475 1.216781 -0.1374131
vn -0.8307089 0.4863548 -0.2853984
vn -0.9659395 0.1900762 -0.3745279
vn -0.5490729 0.7054031 -0.4556797
vn -0.0684496 0.9837909 -0.4387019
vn -0.6689175 0.4015094 -0.6667823
vn -0.1871248 0.6876259 -0.7102553
vn -1.00567 0.02273094 -0.4704586
vn -1.003102 0.05800187 -0.4358636
vn -0.694628 0.3529954 -0.6847776
vn -0.2331225 0.6905365 -0.692193
vn -0.7458 0.3145684 -0.6612753
vn -0.2973369 0.6966434 -0.6591945
vn -0.9991169 0.1079193 -0.380523
vn -1.017733 0.06250249 -0.3748198
vn -0.8075853 0.2010711 -0.6849349
vn -0.4511203 0.4187398 -0.8215612
vn -0.8400773 0.08096246 -0.7394438
vn -0.5444528 0.1379831 -0.9600856
vn -1.030732 0.01089713 -0.3957829
vn -1.045421 -0.2481874 -0.5934819
vn -0.8026029 0.2345896 -0.6616958
vn -0.4686355 0.3902765 -0.8336071
vn -0.7579363 0.3833429 -0.5752838
vn -0.3789645 0.6357816 -0.6747922
vn -1.008397 -0.5584477 -0.7857739
vn -1.054844 -0.264273 -0.5765637
vn -0.702283 0.5262059 -0.4875538
vn -0.3358388 0.7367072 -0.5980503
vn -0.5833682 0.7036097 -0.4152865
vn -0.2650106 0.8335721 -0.5313575
vn -0.9487486 0.2208094 -0.3841109
vn -0.8091713 0.4522153 -0.3981295
vn -0.5644537 0.6235929 -0.5410489
vn -0.3105493 0.6745417 -0.6740941
vn -0.5306271 0.5223381 -0.6793102
vn -0.3531354 0.5009666 -0.8055797
vn -0.7491912 0.546508 -0.378514
vn -0.853211 0.1962468 -0.622433
vn -0.5696682 0.2364296 -0.8827424
vn -0.4321434 0.2771324 -0.9308609
vn -0.6826553 -0.07434256 -0.9861811
vn -0.5508942 0.04593715 -1.007241
vn -0.9225982 -0.1605024 -0.7838975
vn -0.6929089 0.7597098 -0.07020123
vn -0.2830639 0.9955387 -0.3030029
vn -0.102099 0.9671463 -0.4474906
vn 0.324988 1.440765 0.5599716
vn 0.5133528 1.401659 0.3352293
vn -0.04790513 1.283312 0.7583608
vn 0.01825127 1.305391 0.7884014
vn 0.2215335 1.431645 0.4703551
vn 0.5089434 1.384387 0.2639882
vn 0.1278524 1.404141 0.3546712
vn 0.4124894 1.367507 0.156394
vn 0.0832422 1.347293 0.7593232
vn 0.1780945 1.348161 0.8313734
vn 0.3216144 1.44108 0.550256
vn 0.525161 1.399569 0.3396567
vn 0.4960066 1.403276 0.7260645
vn 0.6410769 1.381512 0.5238802
vn 0.2771672 1.322766 0.9144154
vn 0.1672269 1.344448 0.8322994
vn 0.3472914 1.440919 0.5674262
vn 0.4927257 1.380666 0.2385832
vn 0.1915518 1.421026 0.3884902
vn 0.302673 1.267168 -0.0799459
vn 0.05414364 1.345049 0.7332601
vn -0.5828336 0.9301928 0.1445505
vn -0.3271804 1.007643 -0.2406417
vn -0.05684815 0.8668795 -0.5729751
vn -0.7343266 0.2090298 -0.765249
vn -0.3863137 0.2633995 -0.9581366
vn -0.9527929 0.1169599 -0.508434
vn -0.9242805 0.2612064 -0.3972835
vn -0.7163393 0.3251888 -0.6862525
vn -0.3698661 0.2569816 -0.9679384
vn -0.7477661 0.4138137 -0.5560707
vn -0.4082799 0.259838 -0.95182
vn -0.9080603 0.3718896 -0.2525373
vn -0.9605052 0.2491288 -0.2903806
vn -0.840059 0.3312802 -0.4994133
vn -0.4636957 0.2209345 -0.9516971
vn -0.9156422 0.1990256 -0.5013672
vn -0.5141231 0.1533724 -0.9673322
vn -1.003552 0.1202179 -0.342346
vn -0.9827069 0.2080589 -0.2706773
vn -0.9689265 0.08195912 -0.507001
vn -0.7650704 -0.2066498 -0.9814089
vn -0.9800255 0.02545775 -0.5383905
vn -0.9030259 -0.4705146 -0.9288851
vn -0.941624 0.3190975 -0.2211387
vn -0.8262345 0.5734723 -0.06870607
vn -0.8692356 0.3394817 -0.4268276
vn -0.7739326 -0.2115804 -0.9758637
vn -0.7263203 0.6306835 -0.2835971
vn -0.5837162 0.08731802 -0.9664496
vn -0.6827519 0.8063415 0.09675831
vn -0.8575298 0.4937244 -0.1686127
vn -0.8089972 0.4760068 -0.3612373
vn -0.3196189 0.4430689 -0.8628688
vn -0.8695576 0.3615541 -0.3936827
vn 0.09697291 0.910631 -0.5475758
vn -0.9636215 0.1866705 -0.387679
vn -0.5728338 0.9440102 0.1765137
vn -0.4454419 1.032131 0.007648033
vn 0.1817512 0.9302123 -0.5261648
vn 0.142917 1.413206 0.4077733
vn 0.224011 0.8762821 -0.573234
vn 0.1212134 1.374893 0.7206644
vn 0.2020896 1.385132 0.7592909
vn 0.2061647 1.428126 0.4448115
vn 0.1855574 0.8280045 -0.6214831
vn -0.8070544 0.6116857 -0.03108981
vn -0.6348948 0.8718082 0.2369593
vn -0.3724383 1.133349 0.4439791
vn -0.3269668 0.9488857 0.8748024
vn -0.8218434 0.5963628 0.149241
vn -0.6389621 0.8388486 0.3984298
vn -0.4704662 1.041299 0.4226061
vn -0.8037683 0.6149406 -0.0404667
vn -0.5876166 0.8779078 0.4917141
vn -0.888106 0.476387 0.02745171
vn 0.6942436 0.6855952 -0.4988965
vn 0.6803104 0.618933 -0.5526314
vn 0.7049088 1.003595 -0.220662
vn 0.6991456 1.056737 -0.1659439
vn 0.6246805 0.833024 -0.4446703
vn 0.5885378 0.7359888 -0.5435271
vn 0.6410101 0.5752046 -0.6093717
vn 0.4810486 1.242548 -0.06643243
vn 0.5394669 0.6332337 -0.6431969
vn 0.6160407 1.318079 0.181131
vn 0.6012732 1.26048 0.04456597
vn 0.4302704 1.08466 -0.3054783
vn 0.4934564 1.117044 -0.2383838
vn 0.7250191 1.245585 0.1549131
vn -1.060087 -0.2226372 -0.5311787
vn -1.119471 -0.4863503 -0.2927181
vn -0.9986622 -0.3066125 -0.7315424
vn -1.107012 -0.5910689 -0.4592769
vn 0.3211997 0.8398201 -0.5852098
vn 0.2550573 0.8672693 -0.5763247
vn 0.2437391 0.8905948 -0.5569604
vn 0.3085659 0.8651389 -0.5665194
vn -1.114804 -0.3758466 -0.1800262
vn -1.093454 -0.2054511 -0.06278336
vn -1.116501 -0.3991505 -0.1994498
vn -1.095623 -0.2167204 -0.07214671
vn 0.1839758 0.890349 -0.5647746
vn -0.0203455 0.5548885 -0.8418422
vn -0.02424542 0.5700086 -0.8310332
vn 0.1743087 0.9115725 -0.5451114
vn -1.055889 -0.02427361 0.03266319
vn -1.060346 -0.04060203 0.02165315
vn -1.055513 -0.02294974 0.03360845
vn -1.059648 -0.03738329 0.02267326
vn -0.17599 0.1843085 -1.049157
vn -0.05646315 0.5000368 -0.877434
vn -0.05299002 0.5154564 -0.8672898
vn -0.175641 0.1917977 -1.045538
vn -1.064696 -0.05606347 0.009280337
vn -1.091508 -0.7464047 -0.3934123
vn -1.063705 -0.05142406 0.01087861
vn -1.090295 -0.7519074 -0.4030866
vn 0.1404685 -0.2562088 -1.147655
vn 0.6257036 0.2199946 -0.7753721
vn 0.01713083 -0.3148216 -1.190159
vn 0.09552585 -0.2418217 -1.159595
vn 0.1790384 -0.2375175 -1.131395
vn 0.6171597 0.2205203 -0.7821014
vn 0.9267799 0.5756251 -0.2974921
vn 0.4393131 0.01528532 -0.9600347
vn 0.9357876 0.5919206 -0.2739888
vn 0.4365139 0.01019212 -0.9628454
vn -0.2199973 -0.5215976 -1.239876
vn -0.4506569 -0.6812109 -1.223097
vn -0.2458299 -0.5476158 -1.241508
vn -0.4639367 -0.6945492 -1.219834
vn 0.1055002 1.219956 0.9769846
vn 0.1891965 1.222568 1.009403
vn -0.6082988 0.8791213 0.4077568
vn -0.5943314 0.8936931 0.4225281
vn 0.1178487 1.221858 0.9810588
vn 0.196216 1.223465 1.010827
vn -0.9869406 0.1904136 -0.2871233
vn -0.8137625 0.6126616 0.1193213
vn -0.7935644 0.6453496 0.1507497
vn -0.9821706 0.2089184 -0.2715883
vn -0.5318301 0.9444642 0.5126183
vn -0.6824216 0.7894256 0.3468837
vn -0.6303949 0.8477854 0.4092066
vn -0.4897067 0.9801366 0.5541955
vn -0.8112667 0.6121851 0.1760356
vn -0.8376102 0.5670987 0.1516229
vn -0.7503529 0.6972606 0.2835973
vn -0.7540387 0.6964629 0.2598882
vn -0.6571701 -0.8203865 -1.140082
vn -0.3779756 -0.5631148 -1.233823
vn -0.6595551 -0.8231624 -1.138436
vn -0.3900899 -0.5773325 -1.232785
vn -0.05471858 -0.2313239 -1.189074
vn -0.05944744 -0.2125277 -1.185766
vn -0.07813666 -0.2599079 -1.197552
vn -0.08166302 -0.2458282 -1.195209
vn -0.8692062 0.510446 0.1130781
vn -0.867224 0.5116615 0.1351254
vn -0.7975591 0.6239979 0.2447523
vn -0.7546528 0.6875253 0.2930028
vn -0.07559715 -0.174338 -1.178828
vn -0.05718815 -0.07373274 -1.149954
vn -0.09613785 -0.2126972 -1.189615
vn -0.1099046 -0.1685898 -1.180118
vn -0.8534648 0.5301534 0.1857353
vn -0.9483555 0.3438394 0.03894087
vn -0.9208361 0.4033354 0.08567773
vn -0.8262478 0.5751979 0.2234254
vn -0.0744433 0.0654261 -1.103552
vn 0.130735 0.5319272 -0.849982
vn -0.1551756 -0.08795987 -1.158596
vn 0.07849957 0.4415988 -0.9111657
vn -1.02756 0.1300338 -0.110078
vn -0.6813183 0.7114912 0.5193428
vn -0.6489347 0.7492964 0.5491533
vn -1.00221 0.2072326 -0.05269686
vn 0.362781 0.875448 -0.5418872
vn 0.5920985 1.149963 -0.1363067
vn 0.3372971 0.8465044 -0.5749206
vn 0.5806171 1.140316 -0.1573158
vn 0.7531928 1.278872 0.2913323
vn 0.7223513 1.25844 0.1795627
vn 0.7513968 1.278604 0.2863977
vn 0.7405673 1.264451 0.2245385
vn 0.722164 1.211119 0.08259933
vn 0.682104 1.145092 -0.06763024
vn 0.7609384 1.229481 0.1766207
vn 0.6010895 1.089862 -0.2069535
vn -0.1048262 1.092438 0.9638435
vn -0.03856535 1.112545 0.9946237
vn -0.03574526 1.113238 0.9959105
vn -0.09519926 1.095276 0.968856
vn 0.02527548 1.130699 1.018469
vn 0.05002736 1.132334 1.030399
vn 0.09442178 1.136923 1.04777
vn 0.02126564 1.130025 1.016773
vn 0.09795687 1.103442 1.073849
vn -0.2338484 0.9645033 0.9575329
vn -0.3172564 0.891779 0.9290159
vn 0.1888789 1.106894 1.101267
vn 0.4528094 1.127875 -0.2435258
vn -0.1100055 0.7251845 -0.6967952
vn 0.1380769 0.8387087 -0.6157735
vn -0.2728676 0.5220655 -0.8200813
vn -0.5382875 0.8398836 0.6726974
vn -0.8890647 0.4735671 0.07419296
vn -0.9474289 0.3478965 0.01576762
vn -0.7327776 0.6094259 0.5173206
vn -0.4305598 0.1285865 -1.018276
vn -0.3006525 0.3244107 -0.9486535
vn -0.4151191 0.1857812 -0.9928701
vn -0.2921297 0.3584335 -0.9295611
vn -1.05063 -0.1356537 -0.4895914
vn -1.002561 0.1543264 -0.2814776
vn -1.001751 0.1568239 -0.2805549
vn -1.050328 -0.1332915 -0.4883996
vn -0.1716666 0.5298575 -0.8414172
vn -0.01828348 0.7864761 -0.6572978
vn -0.1716792 0.5404313 -0.833629
vn -0.0142187 0.8048946 -0.6408781
vn -0.9052104 0.435258 -0.0580458
vn -0.9682474 0.2912957 -0.1092127
vn -0.9111605 0.4291612 0.02882244
vn -0.9038842 0.4379817 -0.05730824
vn 0.06292959 0.7929882 -0.6575205
vn 0.1063987 0.9068736 -0.5515642
vn 0.1136331 0.9294176 -0.5288846
vn 0.06950183 0.8136739 -0.6392225
vn 0.1385104 1.009787 -0.4427348
vn 0.1464844 1.033165 -0.415964
vn -1.089651 -0.1531714 -0.08163326
vn -1.03311 -0.9367417 -0.3647462
vn -1.053621 -0.8424103 -0.2477317
vn -0.9986565 0.1194486 0.1828931
vn -0.8091845 -1.254866 -0.6687135
vn -0.7982863 -1.2606 -0.6845069
vn 0.1774094 1.408247 0.6540139
vn 0.3958421 1.233428 1.028228

usemtl Waterfall
f 3/3/3 2/2/2 1/1/1 4/4/4
f 6/6/6 5/5/5 2/2/2 3/3/3
f 7/7/7 6/6/6 3/3/3 8/8/8
f 8/8/8 3/3/3 4/4/4 9/9/9
f 10/10/10 8/8/8 9/9/9 11/11/11
f 12/12/12 7/7/7 8/8/8 10/10/10
f 13/13/13 12/12/12 10/10/10 14/14/14
f 10/10/10 11/11/11 15/15/15 14/14/14
f 14/14/14 15/15/15 17/17/17 16/16/16
f 13/13/13 14/14/14 16/16/16 18/18/18
f 18/18/18 16/16/16 20/20/20 19/19/19
f 16/16/16 17/17/17 21/21/21 20/20/20
f 20/20/20 21/21/21 23/23/23 22/22/22
f 19/19/19 20/20/20 22/22/22 24/24/24
f 24/24/24 22/22/22 26/26/26 25/25/25
f 22/22/22 23/23/23 27/27/27 26/26/26
f 26/26/26 27/27/27 29/29/29 28/28/28
f 25/25/25 26/26/26 28/28/28 30/30/30
f 30/30/30 28/28/28 32/32/32 31/31/31
f 28/28/28 29/29/29 33/33/33 32/32/32
f 32/32/32 33/33/33 35/35/35 34/34/34
f 31/31/31 32/32/32 34/34/34 36/36/36
f 36/36/36 34/34/34 38/38/38 37/37/37
f 34/34/34 35/35/35 39/39/39 38/38/38
f 38/38/38 39/39/39 41/41/41 40/40/40
f 37/37/37 38/38/38 40/40/40 42/42/42
f 42/42/42 40/40/40 44/44/44 43/43/43
f 40/40/40 41/41/41 45/45/45 44/44/44
f 44/44/44 45/45/45 47/47/47 46/46/46
f 43/43/43 44/44/44 46/46/46 48/48/48
f 48/48/48 46/46/46 50/50/50 49/49/49
f 46/46/46 47/47/47 51/51/51 50/50/50
f 50/50/50 51/51/51 53/53/53 52/52/52
f 49/49/49 50/50/50 52/52/52 54/54/54
f 55/55/55 54/54/54 52/52/52 56/56/56
f 56/56/56 52/52/52 53/53/53 57/57/57
f 58/58/58 56/56/56 57/57/57 59/59/59
f 60/60/60 55/55/55 56/56/56 58/58/58
f 61/61/61 60/60/60 58/58/58 62/62/62
f 62/62/62 58/58/58 59/59/59 63/63/63
f 62/62/62 63/63/63 65/65/65 64/64/64
f 61/61/61 62/62/62 64/64/64 66/66/66
f 66/66/66 64/64/64 68/68/68 67/67/67
f 68/68/68 64/64/64 65/65/65 69/69/69
f 70/70/70 68/68/68 69/69/69 71/71/71
f 72/72/72 67/67/67 68/68/68 70/70/70
f 73/73/73 72/72/72 70/70/70 74/74/74
f 74/74/74 70/70/70 71/71/71 75/75/75
f 74/74/74 75/75/75 77/77/77 76/76/76
f 73/73/73 74/74/74 76/76/76 78/78/78
f 78/78/78 76/76/76 80/80/80 79/79/79
f 76/76/76 77/77/77 81/81/81 80/80/80
f 82/82/82 80/80/80 81/81/81 83/83/83
f 84/84/84 79/79/79 80/80/80 82/82/82
f 85/85/85 84/84/84 82/82/82 86/86/86
f 86/86/86 82/82/82 83/83/83 87/87/87
f 88/88/88 86/86/86 87/87/87 89/89/89
f 90/90/90 85/85/85 86/86/86 88/88/88
f 91/91/91 90/90/90 88/88/88 92/92/92
f 92/92/92 88/88/88 89/89/89 93/93/93
f 94/94/94 92/92/92 93/93/93 95/95/95
f 96/96/96 91/91/91 92/92/92 94/94/94
f 97/97/97 96/96/96 94/94/94 98/98/98
f 98/98/98 94/94/94 95/95/95 99/99/99
f 100/100/100 98/98/98 99/99/99 101/101/101
f 102/102/102 97/97/97 98/98/98 100/100/100
f 103/103/103 102/102/102 100/100/100 104/104/104
f 104/104/104 100/100/100 101/101/101 105/105/105
f 106/106/106 104/104/104 105/105/105 107/107/107
f 108/108/108 103/103/103 104/104/104 106/106/106
f 109/109/109 108/108/108 106/106/106 110/110/110
f 110/110/110 106/106/106 107/107/107 111/111/111
f 112/112/112 110/110/110 111/111/111 113/113/113
f 114/114/114 109/109/109 110/110/110 112/112/112
f 115/115/115 114/114/114 112/112/112 116/116/116
f 116/116/116 112/112/112 113/113/113 117/117/117
f 118/118/118 116/116/116 117/117/117 119/119/119
f 120/120/120 115/115/115 116/116/116 118/118/118
f 121/121/121 120/120/120 118/118/118 122/122/122
f 122/122/122 118/118/118 119/119/119 123/123/123
f 124/124/124 122/122/122 123/123/123 125/125/125
f 126/126/126 121/121/121 122/122/122 124/124/124
f 127/127/127 126/126/126 124/124/124 128/128/128
f 128/128/128 124/124/124 125/125/125 129/129/129
f 131/131/131 130/130/130 6/6/6 7/7/7
f 132/132/132 5/5/5 6/6/6 130/130/130
f 134/134/134 133/133/133 132/132/132 130/130/130
f 135/135/135 134/134/134 130/130/130 131/131/131
f 137/137/137 136/136/136 12/12/12 13/13/13
f 136/136/136 131/131/131 7/7/7 12/12/12
f 138/138/138 135/135/135 131/131/131 136/136/136
f 139/139/139 138/138/138 136/136/136 137/137/137
f 9/9/9 141/141/141 140/140/140 11/11/11
f 11/11/11 140/140/140 142/142/142 15/15/15
f 140/140/140 144/144/144 143/143/143 142/142/142
f 141/141/141 145/145/145 144/144/144 140/140/140
f 1/1/1 147/147/147 146/146/146 4/4/4
f 4/4/4 146/146/146 141/141/141 9/9/9
f 146/146/146 148/148/148 145/145/145 141/141/141
f 147/147/147 149/149/149 148/148/148 146/146/146
f 15/15/15 142/142/142 150/150/150 17/17/17
f 17/17/17 150/150/150 151/151/151 21/21/21
f 150/150/150 153/153/153 152/152/152 151/151/151
f 142/142/142 143/143/143 153/153/153 150/150/150
f 154/154/154 18/18/18 19/19/19 155/155/155
f 154/154/154 137/137/137 13/13/13 18/18/18
f 139/139/139 137/137/137 154/154/154 156/156/156
f 154/154/154 155/155/155 157/157/157 156/156/156
f 151/151/151 158/158/158 23/23/23 21/21/21
f 23/23/23 158/158/158 159/159/159 27/27/27
f 158/158/158 161/161/161 160/160/160 159/159/159
f 152/152/152 161/161/161 158/158/158 151/151/151
f 24/24/24 25/25/25 163/163/163 162/162/162
f 19/19/19 24/24/24 162/162/162 155/155/155
f 155/155/155 162/162/162 164/164/164 157/157/157
f 162/162/162 163/163/163 165/165/165 164/164/164
f 27/27/27 159/159/159 166/166/166 29/29/29
f 29/29/29 166/166/166 167/167/167 33/33/33
f 166/166/166 169/169/169 168/168/168 167/167/167
f 159/159/159 160/160/160 169/169/169 166/166/166
f 30/30/30 31/31/31 171/171/171 170/170/170
f 25/25/25 30/30/30 170/170/170 163/163/163
f 170/170/170 172/172/172 165/165/165 163/163/163
f 170/170/170 171/171/171 173/173/173 172/172/172
f 35/35/35 33/33/33 167/167/167 174/174/174
f 39/39/39 35/35/35 174/174/174 175/175/175
f 175/175/175 174/174/174 177/177/177 176/176/176
f 174/174/174 167/167/167 168/168/168 177/177/177
f 36/36/36 37/37/37 179/179/179 178/178/178
f 31/31/31 36/36/36 178/178/178 171/171/171
f 171/171/171 178/178/178 180/180/180 173/173/173
f 178/178/178 179/179/179 181/181/181 180/180/180
f 123/123/123 183/183/183 182/182/182 125/125/125
f 125/125/125 182/182/182 184/184/184 129/129/129
f 182/182/182 186/186/186 185/185/185 184/184/184
f 183/183/183 187/187/187 186/186/186 182/182/182
f 119/119/119 117/117/117 189/189/189 188/188/188
f 123/123/123 119/119/119 188/188/188 183/183/183
f 183/183/183 188/188/188 190/190/190 187/187/187
f 188/188/188 189/189/189 191/191/191 190/190/190
f 113/113/113 111/111/111 193/193/193 192/192/192
f 117/117/117 113/113/113 192/192/192 189/189/189
f 189/189/189 192/192/192 194/194/194 191/191/191
f 192/192/192 193/193/193 195/195/195 194/194/194
f 197/197/197 196/196/196 126/126/126 127/127/127
f 196/196/196 198/198/198 121/121/121 126/126/126
f 200/200/200 199/199/199 198/198/198 196/196/196
f 201/201/201 200/200/200 196/196/196 197/197/197
f 120/120/120 121/121/121 198/198/198 202/202/202
f 115/115/115 120/120/120 202/202/202 203/203/203
f 203/203/203 202/202/202 205/205/205 204/204/204
f 202/202/202 198/198/198 199/199/199 205/205/205
f 203/203/203 206/206/206 114/114/114 115/115/115
f 206/206/206 207/207/207 109/109/109 114/114/114
f 209/209/209 208/208/208 207/207/207 206/206/206
f 204/204/204 209/209/209 206/206/206 203/203/203
f 108/108/108 109/109/109 207/207/207 210/210/210
f 211/211/211 103/103/103 108/108/108 210/210/210
f 212/212/212 211/211/211 210/210/210 213/213/213
f 213/213/213 210/210/210 207/207/207 208/208/208
f 105/105/105 215/215/215 214/214/214 107/107/107
f 107/107/107 214/214/214 193/193/193 111/111/111
f 214/214/214 216/216/216 195/195/195 193/193/193
f 215/215/215 217/217/217 216/216/216 214/214/214
f 99/99/99 219/219/219 218/218/218 101/101/101
f 101/101/101 218/218/218 215/215/215 105/105/105
f 218/218/218 220/220/220 217/217/217 215/215/215
f 219/219/219 221/221/221 220/220/220 218/218/218
f 102/102/102 103/103/103 211/211/211 222/222/222
f 97/97/97 102/102/102 222/222/222 223/223/223
f 223/223/223 222/222/222 225/225/225 224/224/224
f 222/222/222 211/211/211 212/212/212 225/225/225
f 93/93/93 227/227/227 226/226/226 95/95/95
f 95/95/95 226/226/226 219/219/219 99/99/99
f 226/226/226 228/228/228 221/221/221 219/219/219
f 227/227/227 229/229/229 228/228/228 226/226/226
f 230/230/230 96/96/96 97/97/97 223/223/223
f 231/231/231 91/91/91 96/96/96 230/230/230
f 232/232/232 231/231/231 230/230/230 233/233/233
f 233/233/233 230/230/230 223/223/223 224/224/224
f 87/87/87 235/235/235 234/234/234 89/89/89
f 89/89/89 234/234/234 227/227/227 93/93/93
f 234/234/234 236/236/236 229/229/229 227/227/227
f 234/234/234 235/235/235 237/237/237 236/236/236
f 238/238/238 90/90/90 91/91/91 231/231/231
f 239/239/239 85/85/85 90/90/90 238/238/238
f 240/240/240 239/239/239 238/238/238 241/241/241
f 241/241/241 238/238/238 231/231/231 232/232/232
f 81/81/81 243/243/243 242/242/242 83/83/83
f 83/83/83 242/242/242 235/235/235 87/87/87
f 242/242/242 244/244/244 237/237/237 235/235/235
f 243/243/243 245/245/245 244/244/244 242/242/242
f 75/75/75 247/247/247 246/246/246 77/77/77
f 77/77/77 246/246/246 243/243/243 81/81/81
f 246/246/246 248/248/248 245/245/245 243/243/243
f 247/247/247 249/249/249 248/248/248 246/246/246
f 69/69/69 251/251/251 250/250/250 71/71/71
f 71/71/71 250/250/250 247/247/247 75/75/75
f 250/250/250 252/252/252 249/249/249 247/247/247
f 251/251/251 253/253/253 252/252/252 250/250/250
f 239/239/239 254/254/254 84/84/84 85/85/85
f 254/254/254 255/255/255 79/79/79 84/84/84
f 257/257/257 256/256/256 255/255/255 254/254/254
f 240/240/240 257/257/257 254/254/254 239/239/239
f 255/255/255 258/258/258 78/78/78 79/79/79
f 258/258/258 259/259/259 73/73/73 78/78/78
f 261/261/261 260/260/260 259/259/259 258/258/258
f 256/256/256 261/261/261 258/258/258 255/255/255
f 259/259/259 262/262/262 72/72/72 73/73/73
f 262/262/262 263/263/263 67/67/67 72/72/72
f 265/265/265 264/264/264 263/263/263 262/262/262
f 260/260/260 265/265/265 262/262/262 259/259/259
f 63/63/63 267/267/267 266/266/266 65/65/65
f 65/65/65 266/266/266 251/251/251 69/69/69
f 266/266/266 268/268/268 253/253/253 251/251/251
f 267/267/267 269/269/269 268/268/268 266/266/266
f 67/67/67 263/263/263 270/270/270 66/66/66
f 66/66/66 270/270/270 271/271/271 61/61/61
f 270/270/270 273/273/273 272/272/272 271/271/271
f 263/263/263 264/264/264 273/273/273 270/270/270
f 59/59/59 57/57/57 275/275/275 274/274/274
f 63/63/63 59/59/59 274/274/274 267/267/267
f 267/267/267 274/274/274 276/276/276 269/269/269
f 274/274/274 275/275/275 277/277/277 276/276/276
f 278/278/278 60/60/60 61/61/61 271/271/271
f 279/279/279 55/55/55 60/60/60 278/278/278
f 280/280/280 279/279/279 278/278/278 281/281/281
f 281/281/281 278/278/278 271/271/271 272/272/272
f 53/53/53 51/51/51 283/283/283 282/282/282
f 57/57/57 53/53/53 282/282/282 275/275/275
f 275/275/275 282/282/282 284/284/284 277/277/277
f 282/288/282 283/287/283 285/286/285 284/285/284
f 286/289/286 54/54/54 55/55/55 279/279/279
f 287/290/287 49/49/49 54/54/54 286/289/286
f 288/291/288 287/290/287 286/289/286 289/292/289
f 289/292/289 286/289/286 279/279/279 280/280/280
f 39/39/39 175/175/175 290/293/290 41/41/41
f 41/41/41 290/293/290 291/294/291 45/45/45
f 290/293/290 293/296/293 292/295/292 291/294/291
f 175/175/175 176/176/176 293/296/293 290/293/290
f 45/45/45 291/294/291 294/297/294 47/47/47
f 47/47/47 294/297/294 283/283/283 51/51/51
f 294/297/294 295/299/295 285/298/285 283/283/283
f 291/294/291 292/295/292 295/299/295 294/297/294
f 296/300/296 48/48/48 49/49/49 287/290/287
f 43/43/43 48/48/48 296/300/296 297/301/297
f 297/301/297 296/300/296 299/303/299 298/302/298
f 288/291/288 299/303/299 296/300/296 287/290/287
f 42/42/42 43/43/43 297/301/297 300/304/300
f 37/37/37 42/42/42 300/304/300 179/179/179
f 179/179/179 300/304/300 301/305/301 181/181/181
f 300/304/300 297/301/297 298/302/298 301/305/301
f 5/5/5 132/132/132 302/306/302 2/2/2
f 2/2/2 302/306/302 147/147/147 1/1/1
f 302/306/302 303/307/303 149/149/149 147/147/147
f 133/133/133 303/307/303 302/306/302 132/132/132

